# xmcd CD database file
#
# Track frame offsets:
#	182
#	10380
#	47217
#	100687
#	108792
#	125210
#	147110
#	163130
#	174197
#
# Disc length: 2659 seconds
#
# Revision: 3
# Processed by: cddbd v1.5PL3 Copyright (c) Steve Scherf et al.
# Submitted via: CDex 1.51
#
DISCID=720a6109
DTITLE=Set Fire To Flames - Telegraphs In Negative - Mouths Trapped In Static [CD 2)
DYEAR=2003
DGENRE=Undefined
TTITLE0=Your Guts Are Like Mine
TTITLE1=Fukt Perkusiv/Something About Bad Drugs, Schizophrenics And Grain Silos...
TTITLE2=Sleep Maps
TTITLE3=Something About Eva Mattes In The Halo Of Exploding Street Lamps...
TTITLE4=Buzz Of Barn Flies Like Faulty Electronics
TTITLE5=And The Birds Are About To Bust Their Guts With Singing
TTITLE6=Rites Of Spring Reverb
TTITLE7=Mouths Trapped In Static
TTITLE8=This Thing Between Us Is A Rickety Bridge Of Impossible Crossing/Bonfires For Nobody...
EXTD=YEAR: 2003
EXTT0=
EXTT1=
EXTT2=
EXTT3=
EXTT4=
EXTT5=
EXTT6=
EXTT7=
EXTT8=
PLAYORDER=
